<svg width="10" height="10" viewBox="0 0 10 10" fill="none" xmlns="http://www.w3.org/2000/svg">
<path d="M9.80112 1.15909C10.0663 0.893935 10.0663 0.464028 9.80112 0.198869C9.53596 -0.0662897 9.10605 -0.0662896 8.84089 0.198869L5.00016 4.0396L1.15951 0.198955C0.894351 -0.0662036 0.464444 -0.0662037 0.199285 0.198955C-0.0658734 0.464114 -0.0658733 0.894021 0.199285 1.15918L4.03993 4.99983L0.198869 8.84089C-0.0662895 9.10605 -0.0662898 9.53596 0.198869 9.80111C0.464028 10.0663 0.893935 10.0663 1.15909 9.80111L5.00016 5.96005L8.84131 9.8012C9.10647 10.0664 9.53637 10.0664 9.80153 9.8012C10.0667 9.53604 10.0667 9.10613 9.80153 8.84098L5.96038 4.99983L9.80112 1.15909Z" fill="white"/>
</svg>
