<svg width="50" height="44" viewBox="0 0 50 44" fill="none" xmlns="http://www.w3.org/2000/svg">
<path d="M23.8854 9.0447V2.29248C23.8861 1.8759 24.0002 1.46736 24.2153 1.11063C24.4304 0.753889 24.7385 0.462384 25.1066 0.267324C25.4747 0.0722638 25.889 -0.0190042 26.3049 0.00329251C26.7209 0.0255892 27.123 0.160611 27.4682 0.3939L48.7813 14.8629C49.0939 15.073 49.3501 15.3568 49.5272 15.6892C49.7043 16.0216 49.797 16.3925 49.797 16.7692C49.797 17.1458 49.7043 17.5167 49.5272 17.8491C49.3501 18.1816 49.0939 18.4653 48.7813 18.6754L27.8509 32.8382V42.0249C27.8494 42.3746 27.755 42.7177 27.5775 43.019C27.3999 43.3202 27.1456 43.569 26.8404 43.7398C26.54 43.9114 26.1998 44.0011 25.8539 44C25.5079 43.9988 25.1684 43.9068 24.8691 43.7332C24.5699 43.5595 24.3215 43.3104 24.1489 43.0106C23.9762 42.7108 23.8854 42.3709 23.8854 42.0249V32.0574C23.8767 31.7572 23.9437 31.4596 24.0802 31.192C24.2166 30.9245 24.4182 30.6955 24.6662 30.5263L45.1832 16.8381L27.8509 4.98725V11.7395L23.8854 9.0447Z" fill="#1E1E1E"/>
<path d="M24.8041 18.369L2.75601 33.1443C2.48807 33.3215 2.17707 33.4228 1.85613 33.4373C1.5352 33.4518 1.21634 33.3789 0.93353 33.2265C0.650718 33.0741 0.414538 32.8478 0.250145 32.5718C0.0857528 32.2958 -0.000696705 31.9804 4.22871e-06 31.6591V1.9861C0.000221222 1.6637 0.0881868 1.34745 0.254468 1.07124C0.42075 0.795037 0.659076 0.5693 0.943891 0.418238C1.22871 0.267176 1.54927 0.196487 1.8712 0.21375C2.19313 0.231012 2.5043 0.335576 2.77132 0.516229L24.8041 15.4293C25.0473 15.5897 25.2469 15.808 25.385 16.0645C25.5231 16.321 25.5954 16.6078 25.5954 16.8992C25.5954 17.1905 25.5231 17.4773 25.385 17.7338C25.2469 17.9904 25.0473 18.2086 24.8041 18.369Z" fill="#1E1E1E"/>
</svg>
